<?xml version="1.0" standalone="no"?>
<svg version="1.0" xmlns="http://www.w3.org/2000/svg"
     width="500px" height="500px" viewBox="-20 -30 1500 1300" preserveAspectRatio="xMidYMid meet">
    <circle cx="50%" cy="50%" r="50%" fill="white"/>
    <g transform="translate(0.000000,1011.000000) scale(0.100000,-0.100000)"
       fill="#000000" stroke="none">
        <path fill="#F60307" stroke="none" d="M7472 10073 c-118 -172 -959 -1600..."/>


        <path fill="#F60307" stroke="none" d="M7472 10073 c-118 -172 -959 -1600 -1457 -2478 -82 -143 -183 -318
-225 -390 -42 -71 -141 -240 -220 -375 -78 -135 -229 -391 -335 -571 -220
-371 -237 -404 -233 -429 4 -27 676 -700 698 -700 13 0 40 38 96 138 198 353
248 438 264 457 9 11 44 74 77 140 74 148 236 439 303 543 58 91 117 195 267
467 653 1187 721 1304 743 1290 26 -16 295 -481 762 -1315 206 -369 398 -714
518 -935 51 -93 105 -185 121 -205 15 -19 80 -129 144 -245 134 -241 182 -323
203 -347 13 -16 17 -15 59 14 25 17 75 59 112 93 138 129 298 267 352 303 31
20 65 50 75 65 11 15 57 60 104 99 47 39 86 74 88 79 4 9 -143 266 -638 1119
-832 1433 -1169 2024 -1513 2650 -189 345 -319 560 -338 560 -4 0 -16 -12 -27
-27z"/>

        <path d="M6209 5523 c-30 -60 -118 -216 -196 -348 -78 -132 -158 -275 -179
-318 l-39 -78 65 -62 c36 -34 160 -147 275 -252 550 -497 1103 -1012 1214
-1131 39 -42 93 -94 120 -115 l49 -39 76 68 c41 37 128 118 193 180 65 63 231
222 368 355 443 426 813 778 914 868 l75 66 -37 77 c-20 42 -107 196 -193 343
-87 148 -180 311 -206 363 -27 52 -52 96 -57 98 -36 13 -583 -462 -1058 -920
-68 -65 -127 -118 -132 -118 -18 0 -116 72 -214 158 -55 48 -215 205 -356 349
-281 289 -454 451 -551 519 -35 24 -66 44 -69 44 -4 0 -31 -48 -62 -107z"/>

        <path d="M4782 5443 c-105 -174 -271 -461 -551 -957 -206 -363 -349 -607 -503
-861 -89 -147 -248 -443 -248 -463 0 -9 135 -12 552 -10 l553 3 20 40 c100
201 397 699 752 1258 62 98 113 187 113 197 0 9 6 22 13 28 7 6 34 53 61 106
l49 95 -48 53 c-254 275 -641 658 -666 658 -4 0 -48 -66 -97 -147z"/>

        <path d="M10048 5513 c-18 -16 -42 -38 -53 -50 -11 -12 -90 -82 -176 -155 -86
-73 -197 -170 -246 -214 -50 -45 -99 -85 -109 -88 -22 -7 -71 -81 -66 -99 9
-31 421 -771 645 -1157 149 -257 316 -525 350 -562 l23 -25 534 -6 c293 -4
535 -6 536 -4 6 6 -48 113 -90 176 -24 36 -110 183 -191 326 -206 363 -449
780 -878 1505 -44 74 -112 190 -151 257 -39 67 -76 122 -83 123 -6 0 -26 -12
-45 -27z"/>

        <path fill="#F60303" stroke="none" d="M4596 2389 c-120 -20 -189 -53 -275 -134 -114 -106 -174 -241 -190
-431 -10 -119 0 -268 25 -354 57 -199 205 -345 399 -395 77 -20 253 -20 330 0
210 54 363 219 411 445 22 100 22 310 0 410 -37 176 -156 340 -296 407 -113
55 -269 75 -404 52z m264 -240 c93 -41 167 -145 190 -269 13 -68 13 -232 0
-300 -26 -139 -118 -254 -227 -286 -122 -36 -258 -1 -336 85 -78 86 -107 182
-107 351 0 214 61 349 190 415 75 39 207 41 290 4z"/>

        <path d="M8944 2385 c-159 -34 -273 -148 -292 -291 -23 -176 53 -310 221 -390
40 -18 139 -52 221 -74 82 -23 161 -47 175 -55 77 -39 102 -125 59 -199 -36
-62 -110 -96 -207 -96 -42 0 -93 5 -115 11 -58 16 -121 84 -142 155 -10 33
-21 63 -26 68 -7 9 -227 -9 -236 -19 -10 -10 31 -156 60 -213 34 -67 105 -140
168 -172 71 -36 160 -53 280 -53 237 0 373 69 452 231 31 62 33 74 33 167 0
126 -19 185 -83 256 -77 86 -139 116 -374 180 -203 54 -266 99 -254 178 11 71
87 111 210 111 118 -1 184 -44 209 -137 l11 -43 124 0 125 0 -6 59 c-10 117
-94 239 -198 289 -101 49 -285 65 -415 37z"/>

        <path fill="#F60303" stroke="none" d="M2229 2353 c-6 -16 -40 -109 -75 -208 -36 -99 -105 -288 -154 -420
-49 -132 -122 -331 -163 -443 l-74 -203 131 3 131 3 47 135 c26 74 48 138 50
143 4 8 483 11 497 3 4 -3 30 -69 57 -146 l49 -140 133 0 c124 0 134 1 127 18
-7 16 -163 428 -334 882 -45 118 -98 257 -117 308 l-36 92 -129 0 -129 0 -11
-27z m161 -330 c11 -35 132 -381 146 -417 5 -14 -12 -16 -166 -16 -134 0 -171
3 -167 13 2 6 39 112 82 235 43 122 81 222 86 222 4 0 13 -17 19 -37z"/>

        <path d="M5990 1730 l0 -650 115 0 115 0 1 498 1 497 24 -90 c13 -49 62 -256
109 -460 47 -203 90 -387 96 -407 l10 -38 119 0 119 0 10 38 c5 20 46 190 90
377 45 187 94 394 110 460 l29 120 1 -497 1 -498 115 0 115 0 0 650 0 650
-185 0 -184 0 -12 -42 c-6 -24 -54 -218 -106 -433 -52 -214 -96 -391 -98 -394
-7 -6 -8 -1 -110 409 -53 212 -100 402 -106 423 l-10 37 -184 0 -185 0 0 -650z"/>

        <path d="M7775 2370 c-6 -9 -102 -272 -365 -990 l-108 -295 121 -3 c67 -1 126
-1 133 2 6 2 33 68 59 145 l47 141 248 0 c189 0 249 -3 253 -12 2 -7 26 -73
52 -145 l47 -133 134 0 c74 0 134 1 134 3 0 1 -14 38 -31 82 -17 44 -82 215
-144 380 -150 396 -238 629 -281 743 l-36 92 -128 0 c-75 0 -131 -4 -135 -10z
m219 -540 c42 -118 76 -221 76 -227 0 -10 -40 -13 -166 -13 -154 0 -166 1
-159 18 3 9 40 115 82 235 42 120 79 214 83 210 4 -4 41 -105 84 -223z"/>

        <path d="M9720 2270 l0 -110 183 -2 182 -3 3 -537 2 -538 123 0 122 0 0 537 0
538 183 3 183 2 -3 108 -3 107 -487 3 -488 2 0 -110z"/>

        <path d="M10870 1730 l0 -650 465 0 465 0 0 110 0 110 -342 2 -343 3 0 170 0
170 308 3 307 2 0 110 0 110 -304 0 c-234 0 -305 3 -309 13 -6 17 -7 246 0
263 4 12 60 14 334 14 l330 0 -3 108 -3 107 -452 3 -453 2 0 -650z"/>

        <path d="M12010 1731 l0 -651 125 0 125 0 0 271 0 272 85 -5 c57 -4 95 -12
117 -25 41 -23 115 -126 250 -345 l103 -167 148 -1 c81 0 147 3 147 6 0 13
-218 369 -260 425 -25 32 -69 77 -97 98 l-53 39 70 21 c82 25 143 69 187 135
44 65 57 115 57 216 -1 104 -26 177 -85 244 -87 99 -128 107 -566 113 l-353 5
0 -651z m680 404 c68 -40 91 -145 50 -225 -35 -68 -58 -74 -282 -78 l-198 -4
0 167 0 167 198 -3 c176 -4 201 -6 232 -24z"/>

        <path fill="#F60303" stroke="none" d="M3138 1743 c-2 -340 -2 -628 0 -640 l3 -23 430 0 430 0 -3 108 -3
107 -307 3 -308 2 0 530 0 530 -120 0 -120 0 -2 -617z"/>
    </g>
</svg>
